<?xml version="1.0" standalone="no"?>
<!DOCTYPE svg PUBLIC "-//W3C//DTD SVG 20010904//EN"
 "http://www.w3.org/TR/2001/REC-SVG-20010904/DTD/svg10.dtd">
<svg version="1.0" xmlns="http://www.w3.org/2000/svg"
 width="520.000000pt" height="480.000000pt" viewBox="0 0 520.000000 480.000000"
 preserveAspectRatio="xMidYMid meet">

<g transform="translate(0.000000,480.000000) scale(0.100000,-0.100000)"
fill="#000000" stroke="none">
<path d="M3373 4641 c-86 -40 -168 -158 -194 -279 -13 -63 -7 -288 10 -357 6
-22 9 -41 7 -42 -1 -1 -37 11 -79 27 -196 76 -422 116 -612 107 -139 -7 -232
-29 -390 -93 -77 -30 -125 -44 -158 -44 -78 0 -234 -20 -313 -40 -194 -50
-432 -199 -619 -389 l-79 -81 -36 113 c-67 207 -145 318 -271 381 -124 62
-212 56 -278 -19 -39 -45 -51 -91 -51 -195 0 -196 81 -392 237 -577 l45 -53
-65 0 c-264 0 -458 -228 -445 -520 7 -132 33 -197 112 -276 74 -74 125 -94
238 -94 l78 0 -59 -112 c-67 -126 -115 -259 -107 -293 4 -17 15 -24 47 -28 22
-3 43 -7 45 -10 4 -4 -23 -97 -122 -415 -60 -194 -94 -385 -94 -534 0 -189 47
-306 174 -432 45 -45 93 -90 108 -101 l27 -20 -25 -95 c-13 -52 -24 -105 -24
-117 0 -37 17 -26 23 13 4 20 16 70 28 110 l22 73 37 -19 c143 -73 306 -117
466 -126 99 -6 174 -1 162 11 -2 3 -65 9 -140 15 -171 13 -303 46 -433 109
-226 110 -348 248 -391 440 -14 60 -16 103 -11 215 9 193 41 316 222 854 3 8
41 -7 120 -48 77 -40 126 -60 150 -60 l35 0 0 -51 c0 -51 0 -51 27 -45 16 4
66 9 112 13 74 5 86 4 98 -12 17 -24 17 -65 -1 -65 -7 0 -45 -16 -84 -36 -149
-74 -252 -256 -252 -446 0 -121 61 -255 160 -354 130 -129 290 -209 487 -244
l70 -13 6 -116 c3 -80 1 -118 -7 -123 -6 -4 -35 -10 -64 -14 -33 -4 -51 -11
-49 -18 4 -12 67 -9 103 5 21 7 23 5 30 -36 15 -101 21 -30 20 233 0 272 12
412 36 412 5 0 8 12 6 27 -2 16 4 35 12 43 13 13 17 13 39 -7 13 -13 26 -21
30 -19 4 3 6 -14 5 -37 -1 -23 3 -48 8 -54 7 -9 7 -13 -3 -13 -10 0 -10 -3 -1
-12 8 -8 8 -17 1 -30 -8 -14 -6 -26 5 -43 12 -18 12 -25 3 -28 -7 -3 -7 -6 -1
-6 6 -1 9 -14 6 -31 -2 -17 0 -30 4 -30 5 0 10 -11 10 -25 1 -14 5 -33 9 -43
4 -9 9 -30 11 -47 8 -68 12 -85 23 -99 6 -8 11 -18 9 -22 -1 -5 3 -19 10 -31
7 -12 12 -26 11 -30 -5 -29 3 -153 9 -153 5 0 13 24 18 52 10 60 3 58 119 33
174 -37 703 -6 1099 65 60 11 124 20 142 20 l32 0 -49 -82 c-27 -44 -49 -85
-49 -90 0 -4 -557 -9 -1237 -10 -827 -1 -1213 -4 -1163 -11 112 -14 2213 -20
2275 -6 71 15 427 22 646 12 103 -5 213 -6 245 -2 49 5 39 6 -52 8 l-111 1
-124 58 c-68 33 -166 76 -217 98 -107 45 -114 39 88 79 333 68 735 190 989
302 18 8 23 17 -124 -202 -143 -212 -193 -284 -211 -306 -8 -8 -14 -21 -14
-27 0 -25 20 -10 63 45 42 56 259 378 306 456 12 20 24 37 26 37 4 0 98 -398
120 -507 4 -19 13 -33 21 -33 8 0 14 4 14 9 0 20 -62 277 -108 451 -27 102
-52 199 -56 215 -11 49 -97 329 -107 347 -12 23 -11 31 1 23 13 -8 13 -2 -3
29 -8 14 -18 22 -22 18 -4 -4 -5 0 -3 8 3 8 -5 34 -18 57 -14 25 -21 48 -17
59 4 12 3 15 -5 10 -8 -5 -10 -2 -6 8 4 9 -1 18 -10 22 -9 3 -14 10 -11 14 3
5 -2 16 -11 24 -9 9 -13 23 -10 32 4 10 2 13 -6 8 -8 -5 -9 0 -5 15 4 18 2 21
-10 17 -11 -4 -13 -2 -9 9 3 8 1 15 -5 15 -6 0 -7 5 -4 10 3 6 1 10 -5 10 -7
0 -9 7 -6 16 3 8 -1 22 -9 31 -8 8 -13 19 -10 24 4 5 0 7 -7 4 -9 -4 -13 5
-14 30 0 19 4 35 9 35 6 0 7 3 4 6 -7 8 31 44 46 44 5 0 3 -8 -4 -17 -12 -14
-12 -16 0 -8 45 27 303 -365 411 -625 107 -256 180 -519 215 -770 23 -172 25
-180 37 -180 19 0 -11 196 -76 495 -19 86 -69 257 -96 325 -11 28 -20 53 -20
55 0 3 26 22 58 42 31 20 105 84 164 143 l107 106 34 -90 c110 -288 178 -576
210 -896 3 -30 4 -29 5 10 3 91 -44 403 -84 555 -27 104 -102 326 -135 402
l-22 52 25 39 c141 213 155 429 43 654 -76 152 -205 316 -442 564 -82 85 -150
159 -152 165 -2 7 14 26 35 44 l38 33 -29 42 c-33 48 -129 134 -236 212 l-70
51 57 23 c217 88 276 314 144 557 -82 149 -252 257 -407 257 -53 0 -193 -39
-221 -62 -19 -17 -25 -3 -13 34 47 149 54 373 17 520 -39 155 -91 239 -169
277 -53 26 -99 26 -154 2z m158 -34 c76 -51 134 -174 160 -338 28 -180 -31
-491 -102 -533 -15 -8 -44 7 -102 54 -4 4 6 36 22 71 36 79 61 196 61 281 -2
216 -105 353 -196 261 -15 -16 -21 -19 -14 -8 12 17 12 18 0 8 -7 -7 -15 -21
-16 -30 -1 -10 -12 -47 -23 -83 -11 -36 -21 -73 -21 -83 0 -10 -3 -16 -7 -14
-8 5 -7 -164 1 -220 3 -22 1 -33 -7 -33 -7 0 -6 -4 3 -10 24 -15 2 -12 -30 5
-35 18 -41 31 -7 15 22 -11 22 -11 -2 9 -13 12 -20 21 -16 21 4 0 2 6 -4 14
-6 7 -19 67 -28 132 -24 178 1 304 84 412 65 86 173 117 244 69z m-47 -227
c14 -17 33 -54 41 -83 21 -68 20 -233 0 -312 -17 -64 -64 -175 -74 -175 -3 0
-29 15 -56 34 -47 31 -51 38 -63 93 -33 160 1 374 71 451 28 30 50 28 81 -8z
m-629 -329 c332 -73 582 -215 850 -485 155 -157 272 -313 331 -441 55 -119 85
-250 91 -392 3 -73 2 -133 -2 -133 -4 0 -13 7 -20 17 -14 18 -35 10 -35 -14 0
-25 -77 -139 -118 -175 l-36 -31 -14 73 c-13 73 -38 134 -74 180 -14 18 -19
37 -17 75 4 75 0 115 -11 115 -6 0 -10 -26 -10 -58 0 -112 -56 -238 -143 -325
-33 -32 -63 -55 -67 -50 -4 4 -17 62 -30 128 -38 202 -122 420 -206 538 -28
38 -40 71 -54 136 -41 197 -140 371 -264 462 -68 50 -61 32 15 -44 85 -84 155
-199 196 -322 23 -71 27 -96 27 -220 1 -108 -3 -153 -17 -197 -10 -32 -21 -58
-26 -58 -4 0 -19 27 -34 60 -39 92 -143 260 -211 345 -37 45 -75 106 -95 153
-44 101 -104 193 -180 275 -77 81 -149 130 -244 164 -62 23 -89 26 -197 27
-108 1 -130 -2 -155 -18 -32 -21 -20 -34 14 -16 12 6 56 13 99 17 162 12 327
-50 443 -166 168 -169 265 -396 276 -641 3 -80 0 -128 -9 -157 l-13 -42 -170
-6 c-426 -13 -764 -75 -1046 -189 -13 -6 -19 6 -34 59 -9 36 -23 65 -29 65 -7
0 -47 -43 -90 -95 -42 -52 -81 -95 -86 -95 -17 0 -58 73 -82 145 -33 100 -33
304 0 418 73 255 270 507 482 618 31 16 40 24 28 27 -38 8 -142 -62 -243 -163
-101 -101 -168 -191 -223 -300 -75 -151 -112 -355 -92 -508 10 -76 9 -92 -9
-153 -82 -280 -95 -617 -33 -866 6 -21 8 -38 6 -38 -24 0 -93 52 -144 107 -72
79 -128 186 -162 313 -20 75 -23 107 -23 280 1 163 4 210 22 285 12 50 24 98
28 108 5 11 2 17 -7 17 -11 0 -20 -24 -31 -77 -56 -263 -59 -440 -11 -631 15
-60 15 -64 -6 -115 -11 -28 -27 -81 -33 -115 l-13 -64 -58 66 c-32 36 -64 66
-71 66 -7 0 -32 -21 -54 -47 -23 -25 -43 -44 -45 -42 -11 13 -36 72 -50 120
-48 168 -67 399 -47 565 24 187 63 312 161 509 163 328 345 528 631 692 177
101 319 142 524 150 79 3 128 10 143 19 20 13 147 63 217 86 133 43 416 47
590 9z m-2260 -112 c84 -31 174 -120 225 -222 23 -44 38 -87 36 -94 -3 -7 -2
-13 3 -13 5 0 12 -11 15 -24 3 -13 9 -32 13 -42 5 -13 3 -15 -8 -10 -8 5 -8 2
2 -6 9 -7 14 -23 12 -36 -2 -16 1 -21 9 -16 7 4 10 4 6 0 -4 -5 -3 -19 3 -33
6 -18 6 -22 -3 -17 -7 5 -9 2 -5 -9 3 -8 -1 -21 -9 -27 -11 -10 -14 -9 -14 4
0 11 5 15 13 10 6 -4 8 -3 4 1 -16 18 -35 13 -31 -9 3 -11 -5 3 -16 33 -11 30
-21 61 -22 70 -2 9 -9 22 -16 29 -7 8 -9 18 -6 24 4 7 2 8 -4 4 -12 -7 -16 3
-13 39 2 15 0 17 -7 6 -11 -15 -27 2 -18 18 3 5 -1 14 -9 21 -8 7 -12 17 -8
23 4 6 1 7 -6 3 -10 -6 -9 -12 1 -25 7 -9 3 -6 -10 7 -12 13 -20 27 -17 32 3
4 -2 13 -10 20 -8 7 -15 9 -15 5 0 -4 -17 7 -38 24 -76 59 -126 65 -158 17
-21 -33 -22 -191 -1 -212 4 -4 7 -18 7 -31 0 -14 7 -31 15 -40 8 -8 13 -19 9
-24 -3 -5 1 -12 10 -15 9 -3 12 -12 9 -21 -4 -10 -2 -14 4 -10 6 4 14 0 17 -9
4 -10 2 -13 -6 -8 -7 4 -8 3 -4 -4 4 -7 14 -12 22 -12 8 0 14 -7 14 -16 0 -9
15 -31 33 -48 17 -17 31 -35 29 -39 -1 -5 2 -6 8 -2 9 6 15 -16 10 -40 -1 -5
2 -7 5 -3 6 6 71 -15 82 -26 8 -8 -21 -55 -30 -49 -6 3 -7 1 -3 -5 4 -7 1 -21
-7 -32 -13 -18 -16 -19 -27 -5 -7 8 -17 15 -23 15 -6 0 -2 -7 9 -15 11 -8 14
-14 6 -15 -7 0 -29 17 -49 38 -20 20 -33 31 -28 23 5 -10 4 -12 -3 -7 -7 4
-12 14 -12 22 0 8 -5 12 -10 9 -5 -3 -10 2 -10 11 0 10 -3 14 -7 11 -3 -4 -12
1 -19 11 -19 24 -17 40 2 16 14 -18 15 -18 4 4 -6 13 -17 21 -24 19 -27 -11
-141 200 -172 318 -12 45 -18 107 -19 175 0 97 2 109 27 151 47 79 125 99 233
58z m3498 -142 c57 -28 91 -54 141 -108 93 -101 135 -198 136 -315 0 -148
-111 -288 -246 -310 l-41 -6 -21 48 -21 49 57 26 c103 46 141 112 129 224 -5
54 -46 149 -78 184 -10 10 -15 22 -11 26 4 4 2 6 -3 4 -18 -4 -45 13 -38 24 3
5 1 7 -4 4 -6 -4 -16 0 -23 7 -6 8 -20 13 -31 11 -10 -2 -19 0 -19 5 0 5 -36
8 -79 7 -44 -1 -77 -5 -74 -9 2 -5 -4 -8 -14 -8 -10 0 -32 -9 -49 -19 -19 -12
-35 -16 -41 -10 -5 5 -9 0 -10 -13 -1 -11 -7 -26 -13 -32 -8 -8 -9 -6 -4 7 4
12 2 16 -8 12 -8 -3 -23 4 -34 16 -10 13 -13 19 -5 14 10 -5 12 -4 7 4 -4 6
-11 9 -15 6 -10 -6 -54 41 -57 60 -3 19 57 69 121 100 107 53 231 50 348 -8z
m-3497 -58 c94 -58 213 -242 236 -364 10 -57 9 -64 -15 -112 -15 -28 -31 -55
-37 -58 -6 -4 -48 30 -93 77 -63 63 -92 103 -125 168 -63 126 -78 252 -36 295
20 20 30 19 70 -6z m3458 -118 c154 -68 209 -287 96 -384 -22 -19 -59 -38 -85
-44 l-45 -10 -46 76 c-53 88 -120 178 -177 237 -44 47 -45 67 -6 97 76 56 176
67 263 28z m-1019 -520 c35 -53 89 -147 120 -209 69 -139 80 -142 113 -27 12
44 26 109 30 145 l7 65 36 -60 c80 -131 125 -245 165 -412 29 -126 30 -140 3
-85 -12 23 -48 72 -80 108 -33 35 -59 71 -59 80 0 8 -7 29 -16 46 -14 27 -19
29 -47 23 -51 -11 -88 -9 -162 8 -185 43 -390 -1 -507 -111 -52 -48 -91 -121
-86 -160 5 -40 21 -36 47 13 103 194 420 267 651 150 117 -59 210 -163 246
-275 23 -71 36 -79 44 -28 4 25 7 29 12 16 11 -26 31 -22 81 16 l45 34 7 -44
c4 -29 12 -47 23 -51 106 -35 205 -125 254 -229 60 -128 49 -251 -34 -393 -44
-75 -206 -236 -298 -298 -295 -197 -817 -392 -1171 -438 -394 -50 -756 -40
-984 26 -194 57 -358 180 -404 302 -52 140 -10 342 91 436 l32 30 25 -21 c36
-28 93 -50 103 -40 5 5 0 47 -11 94 -24 102 -38 241 -20 193 29 -76 50 -72 42
8 -15 166 116 381 285 465 177 87 382 79 505 -22 24 -20 47 -36 51 -36 3 0 6
12 6 27 0 38 -74 105 -147 134 -69 27 -215 32 -303 10 -72 -17 -183 -70 -242
-115 -36 -28 -56 -36 -87 -36 -48 0 -65 -23 -59 -79 3 -23 -3 -53 -16 -81 -11
-25 -28 -72 -37 -105 -16 -54 -18 -56 -18 -25 -3 117 44 406 79 495 12 30 12
30 21 7 17 -46 70 -112 89 -112 16 0 101 94 152 168 l16 24 12 -39 c7 -21 19
-50 26 -65 l14 -27 68 25 c287 109 580 161 962 173 l215 6 13 27 c25 53 36
181 23 273 -6 47 -15 93 -18 103 -15 38 29 -13 92 -107z m-2458 -49 c5 -11 7
-11 14 0 8 11 11 11 18 -1 5 -8 16 -11 25 -8 11 4 16 1 16 -11 0 -13 2 -14 9
-4 7 11 9 11 13 0 3 -7 -8 -44 -23 -83 -15 -38 -28 -64 -28 -57 -1 7 -7 12
-13 11 -7 -2 -32 1 -55 5 -24 4 -49 3 -60 -3 -11 -5 -38 -11 -60 -13 -23 -3
-49 -10 -57 -17 -9 -8 -16 -10 -16 -5 0 20 -66 -68 -93 -126 -26 -55 -31 -77
-31 -140 -1 -62 4 -84 26 -125 14 -27 37 -60 51 -73 30 -28 158 -75 171 -62 4
4 15 6 24 3 11 -5 13 -2 8 8 -4 8 0 5 9 -6 23 -28 16 -69 -13 -73 -12 -2 -20
-8 -17 -13 4 -5 3 -9 -2 -10 -69 -6 -142 -4 -158 5 -11 6 -22 11 -25 12 -3 1
-15 5 -28 9 -12 4 -22 11 -22 16 0 6 -8 13 -18 16 -20 8 -62 50 -62 64 0 5 -4
9 -8 9 -5 0 -21 25 -36 55 -37 71 -45 189 -22 288 49 207 210 349 390 345 47
-2 70 -6 73 -16z m3648 -125 c63 -48 195 -179 195 -194 0 -5 -19 -23 -43 -40
-24 -16 -81 -78 -126 -137 -72 -92 -115 -136 -126 -124 -1 2 -14 26 -28 54
-22 44 -24 54 -13 69 12 17 14 16 20 -9 9 -38 29 -28 39 20 12 53 0 285 -18
359 -8 33 -15 63 -15 68 0 12 50 -17 115 -66z m-3607 -81 c3 -4 -7 -58 -22
-122 -15 -63 -30 -161 -33 -216 l-6 -100 -33 -14 c-42 -18 -105 -18 -147 0
-44 18 -94 77 -108 128 -14 55 -7 164 14 205 36 68 110 122 182 133 41 6 142
-4 153 -14z m2533 -82 c86 -22 109 -24 135 -15 42 15 40 16 60 -36 10 -27 39
-71 65 -99 40 -43 99 -138 99 -160 0 -3 -18 20 -39 52 -132 197 -337 277 -586
229 -127 -24 -212 -71 -277 -152 -15 -20 -28 -31 -28 -25 0 5 18 33 40 61 80
101 228 167 381 170 25 1 93 -11 150 -25z m690 -201 c11 -23 24 -65 29 -95 11
-55 3 -168 -11 -168 -4 0 -25 11 -45 25 -20 13 -51 27 -69 31 -32 6 -33 8 -37
57 -4 46 0 59 34 117 21 36 42 76 45 89 6 23 6 24 21 5 8 -10 23 -38 33 -61z
m797 -223 c259 -282 392 -521 392 -705 0 -182 -100 -377 -282 -551 -73 -69
-170 -144 -187 -144 -3 0 -20 33 -37 73 l-31 73 29 34 c76 92 150 279 174 442
36 242 -13 445 -139 576 -41 43 -136 89 -212 103 -101 18 -238 -20 -316 -89
l-36 -31 -24 42 c-13 23 -24 46 -24 50 0 12 145 76 188 83 41 7 48 29 22 74
-18 32 -18 40 -1 40 15 0 97 85 116 121 7 13 29 44 48 68 l36 44 89 -94 c49
-52 137 -146 195 -209z m-2662 236 c55 -14 134 -57 156 -83 8 -10 -4 -7 -32 9
-63 37 -121 50 -216 50 -177 0 -313 -52 -417 -159 -94 -95 -148 -216 -150
-331 -1 -49 -3 -58 -10 -40 -16 41 -2 149 29 223 17 39 28 83 27 100 -6 61 3
75 48 75 30 0 51 8 78 28 83 64 179 112 276 135 42 10 162 6 211 -7z m2119
-163 c20 -42 34 -77 33 -78 -2 -1 -25 -10 -53 -19 -27 -10 -75 -31 -105 -47
-69 -37 -85 -27 -68 41 9 34 28 61 77 111 36 37 69 67 74 68 4 1 23 -33 42
-76z m-578 5 c-3 -8 -6 -5 -6 6 -1 11 2 17 5 13 3 -3 4 -12 1 -19z m900 -220
c108 -41 212 -170 248 -309 18 -69 30 -189 21 -224 -6 -25 -8 -25 -60 37 -61
71 -176 177 -251 230 -70 51 -235 134 -295 149 -27 7 -50 18 -50 25 0 22 96
85 160 105 54 16 167 10 227 -13z m-3828 -103 c23 -105 72 -222 99 -232 10 -4
21 2 31 18 9 13 29 37 44 54 l29 30 -6 -45 c-4 -25 -9 -93 -13 -152 -5 -96 -8
-108 -25 -108 -10 0 -69 27 -131 59 -104 54 -146 71 -219 86 -35 7 -35 17 -2
113 47 135 145 306 164 286 4 -5 17 -54 29 -109z m3505 -50 c8 -9 19 -17 23
-18 4 -1 7 -4 6 -7 -1 -3 7 -6 17 -6 10 0 17 3 14 7 -2 4 18 -1 45 -11 158
-58 471 -338 471 -423 0 -35 -11 -87 -19 -87 -3 0 -20 20 -38 43 -74 97 -221
232 -333 307 -19 12 -47 36 -62 53 -16 16 -28 26 -28 22 0 -4 -7 -2 -15 5 -8
7 -15 9 -15 4 0 -4 -6 0 -13 11 -8 10 -19 15 -25 11 -7 -4 -12 -3 -12 3 0 10
-34 24 -60 25 -8 1 -14 9 -14 19 1 9 -2 17 -7 17 -5 0 -1 9 8 20 21 24 36 25
57 5z m-3061 -63 c16 -32 50 -86 78 -120 27 -33 49 -64 49 -68 0 -5 -13 -22
-29 -39 -31 -32 -91 -140 -91 -164 0 -26 -37 17 -59 69 -27 63 -38 148 -30
230 7 63 34 150 48 150 4 0 19 -26 34 -58z m3070 -56 c30 -13 57 -29 61 -35 9
-13 -66 -63 -85 -56 -14 5 -49 79 -49 103 0 17 12 15 73 -12z m-3179 -156 c4
-25 17 -75 30 -112 l23 -68 -41 -1 c-23 0 -63 -4 -90 -8 l-49 -8 5 161 c2 89
8 168 13 175 6 10 20 -1 55 -40 37 -42 49 -64 54 -99z m3304 86 c15 -8 42 -25
60 -39 l32 -24 -40 -27 c-22 -14 -46 -26 -54 -26 -7 0 -28 21 -45 48 l-31 47
23 17 c27 21 22 21 55 4z m-189 -50 c-3 -3 -11 5 -18 17 -13 21 -12 21 5 5 10
-10 16 -20 13 -22z m129 -30 c32 -44 62 -63 82 -51 5 3 28 -24 51 -60 39 -62
48 -70 77 -66 7 1 20 -12 30 -30 30 -55 63 -89 86 -89 15 0 29 -12 44 -39 30
-54 48 -67 67 -51 9 7 17 11 20 8 16 -15 -69 -200 -120 -260 l-24 -28 -19 28
c-10 15 -36 61 -57 102 -56 108 -166 271 -251 372 -72 85 -74 89 -74 142 0 55
4 60 46 65 6 0 25 -19 42 -43z m-123 -4 c2 -7 1 -11 -4 -8 -5 3 -8 -9 -7 -27
0 -21 -3 -31 -11 -29 -19 3 -16 -15 5 -27 9 -6 12 -11 6 -11 -6 0 -16 6 -22
13 -12 15 -13 67 0 67 5 0 6 5 3 10 -3 6 -1 10 5 10 7 0 5 7 -4 16 -9 8 -16
17 -16 20 0 9 40 -21 45 -34z m370 -55 l49 -44 -43 -27 c-23 -15 -48 -29 -54
-32 -7 -2 -29 23 -50 57 l-39 62 29 22 c32 27 37 25 108 -38z m113 -110 c23
-23 42 -46 42 -50 0 -14 -80 -59 -94 -54 -9 3 -27 28 -40 56 l-26 50 26 20
c15 12 32 21 38 21 7 0 31 -19 54 -43z m95 -114 c25 -35 26 -38 9 -56 -37 -42
-49 -40 -78 9 l-27 46 24 19 c34 26 42 24 72 -18z m-3595 -103 l11 -61 -83
-117 c-105 -148 -175 -269 -182 -313 -6 -41 8 -59 111 -141 78 -62 192 -129
309 -183 58 -27 76 -40 72 -51 -3 -9 -6 -29 -6 -46 0 -29 -1 -30 -37 -24 -49
9 -164 52 -217 82 -73 41 -178 136 -222 202 -64 95 -87 179 -82 300 3 94 5
104 46 184 54 107 128 183 204 209 29 10 56 18 59 19 3 0 11 -27 17 -60z
m2561 -37 c-3 -21 3 -24 19 -12 15 13 16 12 3 -4 -10 -13 -17 -15 -27 -6 -8 6
-11 15 -8 20 6 11 14 12 13 2z m165 -49 c11 -4 13 -12 6 -29 -5 -12 -11 -51
-14 -86 -2 -35 -20 -111 -40 -169 -72 -218 -182 -500 -194 -500 -12 0 -339 92
-433 122 l-97 30 40 64 c22 35 51 74 64 87 13 12 24 27 24 33 0 6 7 17 15 24
9 7 14 19 11 26 -3 8 0 13 6 11 6 -1 13 4 16 12 3 8 0 11 -7 7 -7 -5 -9 -1 -5
8 3 9 10 13 15 10 5 -3 9 7 9 23 0 22 2 25 10 13 8 -13 10 -13 11 3 2 27 3 29
37 81 17 27 29 53 26 57 -3 5 0 9 6 9 7 0 10 6 8 12 -3 7 1 19 9 26 7 8 10 18
7 24 -4 7 -2 8 5 4 6 -4 18 0 27 8 8 9 21 16 27 16 7 0 6 -4 -3 -10 -8 -5 -11
-10 -6 -10 5 0 17 7 27 16 12 10 42 18 86 20 37 3 70 9 71 14 2 6 29 10 60 10
43 0 53 3 42 11 -11 8 -8 9 15 5 23 -4 83 10 102 23 1 0 8 -2 17 -5z m-2686
-44 l18 -29 -78 -156 c-43 -86 -78 -168 -78 -182 0 -17 13 -37 37 -60 56 -51
175 -130 230 -153 26 -12 60 -26 75 -33 15 -6 24 -15 21 -20 -3 -4 1 -7 8 -6
25 4 67 -12 73 -28 8 -19 -14 -49 -24 -33 -4 6 -19 12 -33 14 -14 1 -32 8 -40
15 -10 7 -16 8 -19 2 -4 -14 -180 66 -264 121 -89 57 -194 155 -194 179 0 25
40 103 98 193 50 76 144 206 149 206 2 0 11 -13 21 -30z m157 -160 c50 -33 70
-52 85 -86 10 -24 42 -69 71 -99 l51 -54 -12 -103 c-7 -57 -16 -107 -20 -111
-10 -12 -215 68 -294 115 -38 22 -87 57 -108 76 -36 32 -40 40 -35 72 4 29 80
182 134 268 l14 23 24 -29 c14 -16 54 -49 90 -72z m1855 -79 c20 -16 31 -33
28 -42 -3 -8 -6 -18 -6 -24 -1 -15 -36 -24 -49 -13 -7 6 -13 17 -13 24 0 8 -9
14 -20 14 -11 0 -20 5 -20 11 0 5 -4 7 -10 4 -5 -3 -10 -1 -10 5 0 6 -11 15
-25 22 -13 6 -22 16 -18 21 4 6 0 8 -11 4 -10 -4 -15 -3 -11 3 3 6 17 10 31
10 14 0 23 4 19 9 -11 19 82 -20 115 -48z m-72 -87 c29 -19 57 -34 63 -34 11
0 -44 -105 -92 -177 l-29 -41 -42 13 c-24 7 -79 27 -123 43 -76 28 -80 32 -78
58 1 16 25 75 52 131 l50 103 73 -32 c40 -17 97 -46 126 -64z m-1586 40 c11
-19 22 -34 25 -34 2 0 1 5 -2 11 -4 6 2 5 14 -3 19 -12 19 -13 3 -20 -21 -8
-17 -9 27 -11 19 -1 36 -8 39 -16 3 -9 0 -11 -9 -6 -8 5 -11 4 -6 -1 9 -9 14
-11 48 -13 11 0 17 -6 14 -11 -4 -7 3 -9 20 -6 15 3 37 -2 51 -10 13 -9 29
-12 35 -8 8 4 9 3 5 -4 -5 -8 4 -12 26 -13 18 -1 69 -3 113 -5 54 -3 92 1 116
11 20 7 39 12 42 9 9 -9 48 7 42 17 -3 5 7 7 24 5 20 -2 28 1 24 9 -2 7 1 16
8 21 8 5 10 3 4 -7 -5 -8 0 -7 12 4 11 9 28 17 39 17 16 0 17 2 4 10 -13 8
-13 10 1 10 9 0 19 -6 22 -13 6 -16 -20 -41 -28 -27 -3 6 -11 10 -16 10 -6 0
-3 -7 5 -16 17 -17 21 -29 7 -20 -5 3 -21 -4 -37 -16 -15 -13 -24 -16 -19 -8
4 8 -4 4 -20 -10 -16 -14 -25 -19 -21 -12 11 18 -8 15 -37 -8 -26 -21 -42 -26
-33 -11 3 4 -6 6 -19 3 -14 -2 -23 -8 -20 -12 3 -5 -12 -7 -32 -4 -24 3 -33 1
-24 -5 8 -5 -4 -9 -35 -9 -27 -1 -51 3 -54 7 -3 5 -21 10 -40 12 -19 2 -40 7
-47 11 -6 5 -31 10 -56 11 -25 1 -43 5 -40 10 2 4 -3 7 -12 7 -10 0 -13 5 -9
12 5 8 2 9 -9 5 -22 -8 -49 2 -40 16 4 6 0 8 -9 5 -18 -7 -44 28 -25 35 9 4 9
6 0 6 -6 1 -15 -3 -18 -9 -3 -5 -11 -10 -16 -10 -6 0 -7 5 -3 12 5 8 2 9 -10
5 -9 -4 -15 -3 -12 2 3 5 -3 11 -14 14 -13 3 -18 10 -14 21 4 11 -2 19 -21 26
-14 5 -23 14 -20 20 3 5 1 10 -5 10 -6 0 -9 4 -6 9 11 17 49 -2 68 -35z m1313
26 c4 -6 1 -17 -5 -25 -6 -8 -8 -20 -4 -27 4 -7 3 -10 -1 -5 -11 10 -45 -22
-44 -42 0 -10 4 -7 10 8 5 13 12 21 16 17 8 -8 -18 -57 -27 -51 -4 2 -6 -6 -5
-19 2 -13 -2 -29 -7 -37 -7 -10 -8 -9 -3 6 6 18 5 18 -15 -2 -22 -24 -36 -31
-24 -11 5 7 0 9 -14 6 -13 -4 -23 0 -26 9 -7 18 44 131 73 161 23 23 65 30 76
12z m-415 -110 c307 -155 1291 -450 1501 -450 88 0 -13 -36 -321 -114 -249
-63 -445 -100 -668 -125 l-154 -17 -106 36 c-361 124 -682 300 -863 470 -72
69 -73 71 -39 63 19 -4 91 -8 160 -7 116 0 132 3 211 33 82 30 184 94 202 126
10 19 8 20 77 -15z m1958 -42 c6 -23 8 -47 5 -52 -3 -6 -3 -8 2 -4 7 6 64
-148 65 -173 0 -3 -18 -14 -40 -24 -32 -15 -42 -16 -55 -5 -13 11 -15 10 -10
-1 8 -22 -87 -25 -120 -3 -14 9 -25 22 -25 29 0 18 31 41 75 55 59 19 62 23
57 89 -4 57 11 131 28 131 4 0 12 -19 18 -42z m-2908 -361 c0 -4 4 -6 8 -3 4
2 9 -4 9 -15 2 -18 0 -19 -14 -7 -15 12 -15 11 -4 -10 12 -22 11 -23 -7 -13
-11 6 -22 7 -26 4 -3 -3 -6 -1 -6 6 0 7 -5 9 -12 5 -7 -4 -10 -4 -6 1 4 4 3
14 -4 22 -9 11 -7 12 7 7 13 -5 16 -4 11 4 -5 8 1 11 18 10 15 -1 26 -6 26
-11z"/>
<path d="M1652 2910 c-67 -31 -164 -116 -189 -163 -18 -36 -6 -50 15 -17 37
58 125 132 198 167 41 19 74 37 74 39 0 12 -42 0 -98 -26z"/>
<path d="M2878 2676 c-80 -22 -146 -78 -194 -166 -15 -27 -19 -55 -19 -125 0
-78 4 -97 27 -141 49 -93 131 -150 255 -175 55 -11 72 -10 165 9 124 27 160
51 203 137 65 130 27 293 -91 389 -98 80 -221 106 -346 72z m126 -57 c43 -38
54 -81 32 -134 -20 -46 -20 -45 -1 -45 29 0 65 -47 65 -84 0 -49 -41 -96 -84
-96 -38 0 -74 23 -87 56 -8 24 -10 24 -38 9 -17 -8 -49 -15 -72 -15 -33 0 -47
6 -75 34 -29 29 -34 41 -34 83 0 29 9 67 24 98 39 83 99 124 183 125 44 0 58
-5 87 -31z m269 -325 c44 -8 46 -18 12 -84 -38 -75 -117 -114 -250 -124 -80
-6 -169 17 -220 58 -26 21 -28 26 -15 41 7 9 40 30 71 46 54 27 59 28 86 14
48 -25 89 -19 131 20 33 31 43 34 92 35 30 0 72 -3 93 -6z"/>
<path d="M1713 2471 c-76 -28 -136 -74 -175 -133 -52 -80 -63 -115 -63 -203 0
-68 5 -88 30 -139 56 -112 148 -165 262 -151 133 16 189 38 268 108 71 63 99
122 103 224 3 71 1 89 -21 136 -51 111 -140 169 -272 174 -61 3 -92 -1 -132
-16z m126 -49 c14 -10 33 -38 41 -61 13 -38 13 -46 -3 -91 -18 -50 -18 -51 2
-77 39 -48 18 -137 -36 -162 -53 -24 -123 0 -138 49 -5 17 -15 20 -61 20 -45
0 -59 5 -86 29 -30 26 -33 35 -33 84 0 46 6 62 35 106 36 53 93 100 145 119
40 15 102 8 134 -16z m179 -384 c23 -6 42 -15 42 -21 0 -6 -23 -32 -51 -58
-39 -36 -66 -51 -124 -68 -123 -37 -175 -38 -239 -7 -66 32 -104 73 -84 91 7
7 40 22 74 34 l61 22 37 -22 c51 -30 108 -22 150 20 33 34 38 34 134 9z"/>
<path d="M2429 1874 c-18 -19 -57 -46 -86 -60 -45 -23 -57 -25 -84 -15 -39 13
-51 5 -24 -16 14 -10 35 -13 73 -10 28 3 52 4 52 3 0 -21 26 -136 42 -186 57
-181 175 -321 237 -283 9 5 25 27 36 49 17 33 20 59 20 174 0 74 -4 174 -8
221 l-9 86 32 13 c39 16 66 60 37 60 -7 0 -18 -9 -25 -20 -15 -24 -68 -27
-151 -6 -112 28 -105 28 -142 -10z m226 -146 c3 -3 8 -47 13 -99 13 -171 -11
-299 -58 -299 -24 0 -82 59 -113 114 -31 55 -74 164 -82 207 -7 39 2 47 85 74
41 13 143 15 155 3z"/>
<path d="M1420 1600 c0 -5 5 -10 10 -10 6 0 10 5 10 10 0 6 -4 10 -10 10 -5 0
-10 -4 -10 -10z"/>
<path d="M448 2903 c6 -2 18 -2 25 0 6 3 1 5 -13 5 -14 0 -19 -2 -12 -5z"/>
<path d="M1390 993 c0 -6 8 -17 18 -24 16 -13 16 -13 2 6 -8 11 -16 22 -17 24
-2 2 -3 0 -3 -6z"/>
<path d="M1808 783 c7 -3 16 -2 19 1 4 3 -2 6 -13 5 -11 0 -14 -3 -6 -6z"/>
<path d="M4120 1580 c6 -11 13 -20 16 -20 2 0 0 9 -6 20 -6 11 -13 20 -16 20
-2 0 0 -9 6 -20z"/>
</g>
</svg>
